<svg xmlns="http://www.w3.org/2000/svg"  viewBox="0 0 24 24" width="96px" height="96px"><path d="M 12 1 C 10.000513 1 8.1167544 1.5397514 6.5 2.4746094 L 6.4980469 2.4746094 C 4.8272226 3.4419269 3.4419269 4.8272257 2.4746094 6.4980469 L 2.4746094 6.5 C 1.5397514 8.1167544 1 10.000513 1 12 C 1 13.999487 1.5397514 15.883246 2.4746094 17.5 L 2.4746094 17.501953 C 3.4419269 19.172774 4.8272257 20.558073 6.4980469 21.525391 L 6.5 21.525391 C 8.1167544 22.460202 10.000513 23 12 23 C 13.999487 23 15.883246 22.460249 17.5 21.525391 L 17.501953 21.525391 C 19.172774 20.558073 20.558073 19.172774 21.525391 17.501953 L 21.525391 17.5 C 22.460202 15.883246 23 13.999487 23 12 C 23 10.000513 22.460249 8.1167544 21.525391 6.5 L 21.525391 6.4980469 C 20.558073 4.8272226 19.172774 3.4419269 17.501953 2.4746094 L 17.5 2.4746094 C 15.883246 1.5397514 13.999487 1 12 1 z M 11 3.0664062 L 11 4.0683594 C 10.266152 4.160452 9.560888 4.3468402 8.9023438 4.625 C 8.9004476 4.6257946 8.8983791 4.6261548 8.8964844 4.6269531 L 8.3964844 3.7597656 C 9.2088236 3.4037032 10.08284 3.1683529 11 3.0664062 z M 13 3.0664062 C 13.917643 3.1685444 14.790828 3.4051625 15.603516 3.7617188 L 15.103516 4.6269531 C 15.101629 4.6261546 15.099543 4.6257971 15.097656 4.625 C 14.439112 4.3468402 13.733847 4.160452 13 4.0683594 L 13 3.0664062 z M 6.6660156 4.7636719 L 7.1679688 5.6308594 C 6.878007 5.8507091 6.6006797 6.0868203 6.34375 6.34375 C 6.0868203 6.6006797 5.8507091 6.878007 5.6308594 7.1679688 L 4.7636719 6.6660156 C 5.2997715 5.9398215 5.9398215 5.2997715 6.6660156 4.7636719 z M 17.332031 4.7636719 C 18.058725 5.3000202 18.69998 5.9412752 19.236328 6.6679688 L 18.369141 7.1679688 C 18.149291 6.878007 17.91318 6.6006797 17.65625 6.34375 C 17.39932 6.0868203 17.121993 5.8507091 16.832031 5.6308594 L 17.332031 4.7636719 z M 11 6.2011719 L 11 8 L 11 8.203125 C 10.64653 8.297335 10.324138 8.4211676 10.015625 8.6015625 L 8.6015625 7.1875 C 9.30963 6.6843283 10.107436 6.3555941 11 6.2011719 z M 13 6.2011719 C 13.892564 6.3555941 14.690369 6.6843283 15.398438 7.1875 L 13.984375 8.6015625 C 13.675862 8.4211676 13.35347 8.2973349 13 8.203125 L 13 8 L 13 6.2011719 z M 3.7617188 8.3964844 L 4.6269531 8.8964844 C 4.6261548 8.8983791 4.6257946 8.9004476 4.625 8.9023438 C 4.3468402 9.560888 4.160452 10.266152 4.0683594 11 L 3.0664062 11 C 3.1685444 10.082357 3.4051625 9.2091719 3.7617188 8.3964844 z M 20.238281 8.3964844 C 20.594837 9.2091719 20.831456 10.082357 20.933594 11 L 19.931641 11 C 19.839548 10.266152 19.65316 9.560888 19.375 8.9023438 C 19.374203 8.9004565 19.373845 8.8983709 19.373047 8.8964844 L 20.238281 8.3964844 z M 7.1875 8.6015625 L 8.6015625 10.015625 C 8.4211676 10.324138 8.2973349 10.64653 8.203125 11 L 6.2011719 11 C 6.3555941 10.107436 6.6843283 9.30963 7.1875 8.6015625 z M 16.8125 8.6015625 C 17.315672 9.30963 17.644406 10.107436 17.798828 11 L 15.796875 11 C 15.702665 10.64653 15.578831 10.324138 15.398438 10.015625 L 16.8125 8.6015625 z M 12 10 C 12.548745 10 13.042944 10.223904 13.414062 10.585938 C 13.776096 10.957055 14 11.451255 14 12 C 14 12.549658 13.77447 13.044168 13.412109 13.414062 C 13.04126 13.775885 12.548098 14 12 14 C 11.451902 14 10.95874 13.775884 10.587891 13.414062 C 10.22553 13.044168 10 12.549658 10 12 C 10 11.451255 10.223904 10.957056 10.585938 10.585938 C 10.957055 10.223904 11.451255 10 12 10 z M 3.0664062 13 L 4.0683594 13 C 4.160452 13.733847 4.3468402 14.439112 4.625 15.097656 C 4.6257946 15.099552 4.6261548 15.101621 4.6269531 15.103516 L 3.7617188 15.603516 C 3.4051625 14.790845 3.1685444 13.917641 3.0664062 13 z M 6.2011719 13 L 8.203125 13 C 8.297201 13.352941 8.421463 13.674355 8.6015625 13.982422 L 7.1855469 15.398438 C 6.6827167 14.690575 6.3555289 13.892187 6.2011719 13 z M 15.796875 13 L 17.798828 13 C 17.644471 13.892187 17.317283 14.690576 16.814453 15.398438 L 15.398438 13.982422 C 15.578537 13.674355 15.702799 13.352941 15.796875 13 z M 19.931641 13 L 20.933594 13 C 20.831647 13.91716 20.596297 14.791176 20.240234 15.603516 L 19.373047 15.103516 C 19.373845 15.101621 19.374205 15.099552 19.375 15.097656 C 19.65316 14.439112 19.839548 13.733847 19.931641 13 z M 10.015625 15.396484 C 10.324412 15.577311 10.646206 15.702518 11 15.796875 L 11 16 L 11 17.798828 C 10.10688 17.64431 9.3079812 17.316176 8.5996094 16.8125 L 10.015625 15.396484 z M 13.984375 15.396484 L 15.400391 16.8125 C 14.692019 17.316176 13.89312 17.64431 13 17.798828 L 13 16 L 13 15.796875 C 13.353794 15.702515 13.675588 15.577311 13.984375 15.396484 z M 5.6308594 16.832031 C 5.8507091 17.121993 6.0868203 17.39932 6.34375 17.65625 C 6.6006797 17.91318 6.878007 18.149291 7.1679688 18.369141 L 6.6660156 19.236328 C 5.9398215 18.700228 5.2997715 18.060179 4.7636719 17.333984 L 5.6308594 16.832031 z M 18.369141 16.832031 L 19.236328 17.333984 C 18.699911 18.060246 18.058657 18.700298 17.332031 19.236328 L 16.832031 18.369141 C 17.121993 18.149291 17.39932 17.91318 17.65625 17.65625 C 17.91318 17.39932 18.149291 17.121993 18.369141 16.832031 z M 8.8964844 19.373047 C 8.8983791 19.373845 8.9004476 19.374205 8.9023438 19.375 C 9.560888 19.65316 10.266152 19.839548 11 19.931641 L 11 20.933594 C 10.082357 20.831456 9.2091719 20.594837 8.3964844 20.238281 L 8.8964844 19.373047 z M 15.103516 19.373047 L 15.603516 20.238281 C 14.790828 20.594837 13.917643 20.831456 13 20.933594 L 13 19.931641 C 13.733847 19.839548 14.439112 19.65316 15.097656 19.375 C 15.099543 19.374203 15.101629 19.373845 15.103516 19.373047 z"/></svg>